<svg width="69" height="28" viewBox="0 0 69 28" fill="none" xmlns="http://www.w3.org/2000/svg">
<path d="M29.0117 18L26.041 9.97656L25.2158 9.875V8.75781H28.8911V9.875L28.0596 10.002L29.875 15.4546L30.0146 15.9624H30.0527L30.186 15.4673L32.0015 10.002L31.0303 9.875V8.75781H34.5342V9.875L33.6963 9.97656L30.9097 18H29.0117ZM38.876 18.1333C38.1947 18.1333 37.5747 18.0571 37.0161 17.9048C36.4575 17.7524 35.9074 17.488 35.3657 17.1113V14.877H36.8003L36.9971 16.1909C37.1875 16.3517 37.4499 16.4829 37.7842 16.5845C38.1185 16.6818 38.4824 16.7305 38.876 16.7305C39.2103 16.7305 39.4917 16.6839 39.7202 16.5908C39.953 16.4977 40.1286 16.3665 40.2471 16.1973C40.3698 16.0238 40.4312 15.8206 40.4312 15.5879C40.4312 15.3678 40.3761 15.1732 40.2661 15.0039C40.1603 14.8304 39.9826 14.6738 39.7329 14.5342C39.4875 14.3903 39.1532 14.2528 38.73 14.1216C37.9979 13.9058 37.3906 13.6709 36.9082 13.417C36.43 13.1589 36.0703 12.8521 35.8291 12.4966C35.5921 12.1369 35.4736 11.7052 35.4736 11.2017C35.4736 10.7023 35.6112 10.2622 35.8862 9.88135C36.1655 9.49626 36.5506 9.19368 37.0415 8.97363C37.5324 8.75358 38.0994 8.63932 38.7427 8.63086C39.4536 8.6224 40.082 8.70703 40.6279 8.88477C41.1781 9.0625 41.652 9.31006 42.0498 9.62744V11.7095H40.6597L40.4185 10.4399C40.2576 10.3384 40.0397 10.2495 39.7646 10.1733C39.4938 10.0972 39.1849 10.0591 38.8379 10.0591C38.5417 10.0591 38.2793 10.1035 38.0508 10.1924C37.8265 10.2812 37.6488 10.4103 37.5176 10.5796C37.3864 10.7489 37.3208 10.9541 37.3208 11.1953C37.3208 11.4027 37.3779 11.5846 37.4922 11.7412C37.6064 11.8936 37.7969 12.0396 38.0635 12.1792C38.3343 12.3146 38.7067 12.4606 39.1807 12.6172C40.2005 12.9007 40.9728 13.2752 41.4976 13.7407C42.0265 14.2062 42.291 14.8177 42.291 15.5752C42.291 16.0999 42.1493 16.5549 41.8657 16.9399C41.5822 17.3208 41.1844 17.6149 40.6724 17.8223C40.1603 18.0296 39.5615 18.1333 38.876 18.1333Z" fill="white"/>
<path d="M57.1538 26.3846C57.1538 26.3846 67.3077 21.3077 67.3077 13.6923V4.80769L57.1538 1L47 4.80769V13.6923C47 21.3077 57.1538 26.3846 57.1538 26.3846Z" fill="white" stroke="white" stroke-width="2" stroke-linecap="round" stroke-linejoin="round"/>
<path d="M11.2308 26.3846C11.2308 26.3846 21.3846 21.3077 21.3846 13.6923V4.80769L11.2308 1L1.07692 4.80769V13.6923C1.07692 21.3077 11.2308 26.3846 11.2308 26.3846Z" fill="white" stroke="white" stroke-width="2" stroke-linecap="round" stroke-linejoin="round"/>
</svg>
